<?xml version="1.0" encoding="utf-8"?>
<!-- Generator: Adobe Illustrator 22.1.0, SVG Export Plug-In . SVG Version: 6.00 Build 0)  -->
<svg version="1.1" xmlns="http://www.w3.org/2000/svg" xmlns:xlink="http://www.w3.org/1999/xlink" x="0px" y="0px"
	 viewBox="0 0 2120 858" style="enable-background:new 0 0 2120 858;" xml:space="preserve">
<style type="text/css">
	.st0{fill:none;stroke:#62E81C;stroke-width:110;stroke-miterlimit:10;}
	.st1{fill:none;}
	.st2{font-family:'ArialMT';}
	.st3{font-size:12px;}
	.st4{font-family:'PTMono-Regular';}
	.st5{font-size:34px;}
	.st6{fill:none;stroke:#62E81C;stroke-width:111;stroke-miterlimit:10;}
	.st7{fill:none;stroke:#000000;stroke-miterlimit:10;}
	.st8{display:none;fill:none;stroke:#000000;stroke-width:100;stroke-miterlimit:10;}
</style>
<g id="Layer_1">
	<g id="Layer_1_1_">
		<path class="st0" d="M228.5,207.5h421c0,0,156-5,156,99s10,165,245,165s529,0,529,0s107,8,107-157"/>
		<path id="SVGID_x5F_1_x5F_" class="st1" d="M228.5,207.5h421c0,0,156-5,156,99s10,165,245,165s529,0,529,0s107,8,107-157"/>
		<text class="st2 st3"> </text>
		<text transform="matrix(1 0 0 1 253.0966 207.5)" class="st2 st3"> </text>
		<text transform="matrix(1 0 0 1 256.4305 207.5)" class="st2 st3"> </text>
		<text class="st2 st3"> </text>
	</g>
	<g id="Layer_2_1_">
		<polyline class="st0" points="400.5,669.5 835.6,669.5 1887.5,669.5 		"/>
		<path id="SVGID_x5F_2_x5F_" class="st1" d="M400.5,669.5h1487"/>
		<text class="st2 st3"> </text>
		<text transform="matrix(1 0 0 1 464.5303 669.5)" class="st2 st3"> </text>
		<text transform="matrix(1 0 0 1 467.8642 669.5)" class="st4 st5"> </text>
		<text transform="matrix(1 0 0 1 488.2639 669.5)" class="st2 st3"> </text>
		<text class="st2 st3"> </text>
	</g>
</g>
<g id="Layer_2">
	<path id="path_bg_v2" class="st6" d="M1869.9,260h-453.7c0,0-129.6-7-129.6,127.4c0,114.4-155.8,102.7-155.8,102.7H700.1
		c0,0-103.7-6.5-103.7-165.3c0-138.9-111.8-132.9-111.8-132.9H227"/>
	<path id="path_v2" class="st7" d="M1869.9,260h-453.7c0,0-129.6-7-129.6,127.4c0,114.4-155.8,102.7-155.8,102.7H700.1
		c0,0-103.7-6.5-103.7-165.3c0-138.9-111.8-132.9-111.8-132.9H227"/>
</g>
<g id="Layer_3">
	<path id="padv5_1_" class="st7" d="M228,188.7h254.3c0,0,116.6-11.5,116.6,116.6s1.9,183.5,130,183.5s407.2,0,407.2,0
		S1289,502.2,1289,387.5s78.4-128.1,154.8-128.1c76.5,0,422.5,0,422.5,0"/>
	<path id="padv5" class="st8" d="M228,188.7h254.3c0,0,116.6-11.5,116.6,116.6s1.9,183.5,130,183.5s407.2,0,407.2,0
		S1289,502.2,1289,387.5s78.4-128.1,154.8-128.1c76.5,0,422.5,0,422.5,0"/>
</g>
</svg>
